<svg width="143" height="13" viewBox="0 0 143 13" fill="none" xmlns="http://www.w3.org/2000/svg">
<path d="M6 12.16C8.768 12.16 10.672 10.608 11.104 8.192H10.032C9.6 10 8.112 11.184 6.048 11.184C3.568 11.184 1.888 9.488 1.888 7.168V5.296C1.888 2.752 3.552 1.168 6.112 1.168C8.368 1.168 9.696 2.4 10.032 4.16H11.104C10.768 1.776 8.96 0.176 6.128 0.176C2.672 0.176 0.784 2.4 0.784 6.176C0.784 10.016 2.752 12.16 6 12.16ZM13.76 12H20.576V11.024H14.8V0.335999H13.76V12ZM22.9006 12H30.4686V10.992H23.9406V6.48H29.7166V5.52H23.9406V1.344H30.4686V0.335999H22.9006V12ZM40.6364 12H41.7564L37.2604 0.335999H36.0764L31.5804 12H32.6844L33.8364 8.992H39.4844L40.6364 12ZM34.1884 8.08L35.0364 5.84L36.6364 1.36H36.7004L38.2844 5.84L39.1324 8.08H34.1884ZM43.3225 12H44.3625V7.36H51.0825V12H52.1225V7.728C52.1225 7.104 51.9305 6.688 51.1465 6.688H50.4425V6.592C51.4185 6.24 52.0745 5.216 52.0745 3.824C52.0745 1.664 51.0345 0.335999 48.7465 0.335999H43.3225V12ZM44.3625 6.4V1.296H48.6345C50.0425 1.296 50.9705 1.92 50.9705 3.264V4.416C50.9705 5.6 50.1225 6.4 48.6345 6.4H44.3625ZM55.26 12H62.076V11.024H56.3V0.335999H55.26V12ZM60.3464 0.335999L64.7304 7.184V12H65.7704V7.184L70.1384 0.335999H68.8424L66.8744 3.536L65.3064 6.144H65.1944L63.6424 3.568L61.6264 0.335999H60.3464ZM71.354 12H76.442C79.946 12 81.818 10.112 81.818 6.176C81.818 2.448 80.138 0.335999 76.442 0.335999H71.354V12ZM74.33 9.456V2.88H76.346C77.866 2.88 78.698 3.328 78.698 5.152V7.184C78.698 8.64 78.266 9.456 76.346 9.456H74.33ZM83.4165 12H91.8325V9.456H86.3925V7.136H91.0005V4.752H86.3925V2.88H91.8325V0.335999H83.4165V12ZM93.6509 12H96.6269V8.032H101.475V5.616H96.6269V2.88H102.115V0.335999H93.6509V12ZM106.549 12V0.335999H103.573V12H106.549ZM108.76 12H111.736V7.84L111.576 4.672H111.704L115.832 12H119.24V0.335999H116.28V4.464L116.456 7.744H116.328L112.168 0.335999H108.76V12ZM121.448 12H129.864V9.456H124.424V7.136H129.032V4.752H124.424V2.88H129.864V0.335999H121.448V12ZM131.682 12H136.77C140.274 12 142.146 10.112 142.146 6.176C142.146 2.448 140.466 0.335999 136.77 0.335999H131.682V12ZM134.658 9.456V2.88H136.674C138.194 2.88 139.026 3.328 139.026 5.152V7.184C139.026 8.64 138.594 9.456 136.674 9.456H134.658Z" fill="white"/>
</svg>
